HIERARCHY
ROOT Hips
{
  OFFSET 267.745 86.9975 -272.335
  CHANNELS 6 Xposition Yposition Zposition Zrotation Xrotation Yrotation
  JOINT LeftUpLeg
  {
    OFFSET 8.64259 1.95398 -2.38835
    CHANNELS 3 Zrotation Xrotation Yrotation
    JOINT LeftLeg
    {
      OFFSET 43.7702 0 0
      CHANNELS 3 Zrotation Xrotation Yrotation
      JOINT LeftFoot
      {
        OFFSET 40.6238 0 0
        CHANNELS 3 Zrotation Xrotation Yrotation
        JOINT LeftToeBase
        {
          OFFSET 12.7242 0 0
          CHANNELS 3 Zrotation Xrotation Yrotation
          End Site
          {
            OFFSET 0 0 0
          }
        }
      }
    }
  }
  JOINT RightUpLeg
  {
    OFFSET -8.2249 1.95398 -2.59336
    CHANNELS 3 Zrotation Xrotation Yrotation
    JOINT RightLeg
    {
      OFFSET 43.5653 0 0
      CHANNELS 3 Zrotation Xrotation Yrotation
      JOINT RightFoot
      {
        OFFSET 40.6238 0 0
        CHANNELS 3 Zrotation Xrotation Yrotation
        JOINT RightToeBase
        {
          OFFSET 12.7242 0 0
          CHANNELS 3 Zrotation Xrotation Yrotation
          End Site
          {
            OFFSET 0 0 0
          }
        }
      }
    }
  }
  JOINT Spine
  {
    OFFSET 0.165834 0.87714 6.61349
    CHANNELS 3 Zrotation Xrotation Yrotation
    JOINT Spine1
    {
      OFFSET 7.38963 1.71661e-005 0
      CHANNELS 3 Zrotation Xrotation Yrotation
      JOINT Spine2
      {
        OFFSET 11.9445 1.14441e-005 0
        CHANNELS 3 Zrotation Xrotation Yrotation
        JOINT Spine3
        {
          OFFSET 14.7254 4.19617e-005 0
          CHANNELS 3 Zrotation Xrotation Yrotation
          JOINT Spine4
          {
            OFFSET 10.9679 0 0
            CHANNELS 3 Zrotation Xrotation Yrotation
            JOINT RightShoulder
            {
              OFFSET 2.46616 -1.6653 3.69651
              CHANNELS 3 Zrotation Xrotation Yrotation
              JOINT RightArm
              {
                OFFSET 13.0012 0 0
                CHANNELS 3 Zrotation Xrotation Yrotation
                JOINT RightForeArm
                {
                  OFFSET 28.7848 1.52588e-005 0
                  CHANNELS 3 Zrotation Xrotation Yrotation
                  JOINT RightHand
                  {
                    OFFSET 26.5688 1.52588e-005 0
                    CHANNELS 3 Zrotation Xrotation Yrotation
                    End Site
                    {
                      OFFSET 0 0 0
                    }
                  }
                }
              }
            }
            JOINT LeftShoulder
            {
              OFFSET 2.38034 -1.29275 -3.7523
              CHANNELS 3 Zrotation Xrotation Yrotation
              JOINT LeftArm
              {
                OFFSET 16.3182 6.10352e-005 0
                CHANNELS 3 Zrotation Xrotation Yrotation
                JOINT LeftForeArm
                {
                  OFFSET 27.0901 0 0
                  CHANNELS 3 Zrotation Xrotation Yrotation
                  JOINT LeftHand
                  {
                    OFFSET 24.5451 1.52588e-005 0
                    CHANNELS 3 Zrotation Xrotation Yrotation
                    End Site
                    {
                      OFFSET 0 0 0
                    }
                  }
                }
              }
            }
            JOINT Neck
            {
              OFFSET 5.0226 -0.0266342 0
              CHANNELS 3 Zrotation Xrotation Yrotation
              JOINT Head
              {
                OFFSET 6.69364 2.86102e-005 0
                CHANNELS 3 Zrotation Xrotation Yrotation
                End Site
                {
                  OFFSET 0 0 0
                }
              }
            }
          }
        }
      }
    }
  }
}
MOTION
Frames:	6
Frame Time:	0.0416667
-0.337797 96.7994 -6.13958 147.273 -87.2618 148.248 -173.234 2.09943 92.1316 -14.8231 1.66809 1.75754 68.3569 3.80981 -2.23663 27.316 -0.21495 2.91316 174.91 2.56975 87.8706 -14.9391 -7.52983 0.0780905 67.781 -3.50056 3.45448 27.3447 0.488402 -1.2581 -0.494217 7.24626 -90.1648 12.3808 -1.06032 -0.208433 0.710287 -1.06846 -0.16156 -21.8276 -0.948655 -0.517498 -1.815 -0.948655 -0.517495 101.719 -50.6609 -82.8595 31.8563 -4.76655 -6.55084 1.54784 -11.4028 -13.3917 -12.8751 -0.513049 -0.569723 -78.8603 -51.8174 95.3594 -33.5863 -1.07222 -19.5339 -1.63613 36.0055 -0.509056 1.53278 -0.199978 -7.5792 -8.06055 -26.6987 7.92053 -18.2011 -22.888 -38.0906 
-0.318091 96.8123 -6.11157 146.278 -87.4578 147.215 -173.257 2.13973 92.0675 -14.5645 1.66353 1.71383 68.1903 3.82292 -2.06192 27.4843 -0.211837 2.77557 174.961 2.79593 87.8669 -15.0226 -7.41259 0.0364417 67.7841 -3.45822 3.41126 27.1853 0.450914 -0.507885 -0.474285 7.18642 -90.1399 12.5007 -1.00882 -0.162892 0.830142 -1.01502 -0.118336 -21.7076 -0.913222 -0.458581 -1.69496 -0.913227 -0.458585 101.587 -51.3403 -83.0563 31.3709 -4.82374 -6.17686 1.58825 -11.4405 -13.2891 -13.0062 -0.480155 -0.919844 -78.8661 -51.5767 95.3462 -33.7616 -1.33854 -19.2367 -1.71887 36.2235 -0.0775318 1.07233 -0.187396 -7.59094 -6.62715 -23.4832 7.28063 -17.0352 -20.4233 -33.9273 
-0.306031 96.7941 -6.08046 145.736 -87.4848 146.67 -173.248 2.16828 92.0699 -14.5792 1.84764 1.69587 68.1185 3.81323 -1.95408 27.5785 -0.241507 2.94213 174.932 2.81092 87.8181 -15.0028 -7.21146 0.0473795 67.8555 -3.31744 3.86296 27.1873 0.475777 -0.741933 -0.452235 7.14216 -90.164 12.589 -0.976518 -0.213848 0.918369 -0.984985 -0.170671 -21.6191 -0.867098 -0.497467 -1.60643 -0.867098 -0.497469 101.502 -51.3831 -83.1869 31.2116 -4.82729 -5.80215 1.66652 -10.9642 -13.513 -12.9121 -0.511515 -0.600481 -78.8544 -51.8411 95.3688 -33.7504 -1.61772 -18.9524 -1.67171 36.2008 -0.0221568 0.915188 -0.185477 -7.67506 -4.58935 -19.1906 6.88554 -15.7803 -16.9993 -28.613 
-0.337685 96.7796 -6.06487 144.678 -87.272 145.627 -173.225 2.09788 92.1302 -14.7169 1.84476 1.7312 68.1938 3.79699 -2.06032 27.5934 -0.218033 2.7483 174.882 2.58696 87.8504 -14.929 -7.33687 0.100576 67.9285 -3.56823 3.51915 27.1729 0.512407 -1.06187 -0.399104 7.17995 -90.171 12.5133 -0.874289 -0.240595 0.842629 -0.884032 -0.201882 -21.6942 -0.761564 -0.492245 -1.68159 -0.761563 -0.492247 101.636 -51.4523 -82.9804 31.2092 -4.88975 -6.19272 1.63534 -11.2134 -13.4593 -13.3074 -0.509693 -0.754077 -79.1387 -51.6613 94.941 -34.188 -1.90473 -19.4092 -1.37941 36.3613 -0.00144582 1.05473 -0.186625 -7.58143 -2.10238 -14.8315 5.4237 -14.6323 -13.2736 -23.4339 
-0.392065 96.8 -6.07815 142.055 -87.0283 142.872 -173.224 1.96403 92.0768 -14.6186 2.06191 1.70214 68.1486 3.831 -2.08132 27.5775 -0.207374 2.67607 174.853 2.52992 87.7699 -15.1067 -6.95197 0.0332858 67.9248 -3.44853 3.63296 27.3757 0.421497 -0.691726 -0.377444 7.17614 -90.1685 12.5209 -0.830046 -0.240498 0.850172 -0.839817 -0.203741 -21.6865 -0.719397 -0.478853 -1.67385 -0.719393 -0.478859 101.518 -51.6241 -83.1587 30.9305 -4.9569 -6.14602 1.57689 -11.4654 -13.4499 -13.2343 -0.489162 -0.915125 -79.1963 -51.7549 94.8576 -34.1466 -1.90039 -19.6425 -1.41106 36.5286 -0.00260483 1.41151 -0.198454 -7.63617 0.778657 -10.5236 4.56552 -16.2315 -9.04733 -19.4018 
-0.420327 96.795 -6.10257 139.796 -86.8446 140.549 -173.249 1.9572 92.044 -14.6736 2.18732 1.69793 68.1601 3.89459 -1.95418 27.5484 -0.164875 2.36642 174.855 2.47588 87.7651 -15.1807 -6.88177 0.00914763 68.008 -3.57287 3.44023 27.4634 0.422919 -0.922677 -0.338385 7.16691 -90.1841 12.5392 -0.759931 -0.279656 0.868487 -0.771496 -0.245944 -21.6678 -0.640754 -0.49512 -1.65513 -0.640746 -0.495122 101.485 -51.4956 -83.2118 30.9307 -4.87078 -6.10145 1.76787 -10.6105 -13.4444 -12.9063 -0.443864 -1.22155 -79.1432 -52.1969 94.9471 -33.6752 -1.73186 -19.8622 -1.52455 37.0309 -0.0732623 1.43644 -0.199864 -7.63203 1.78565 -7.01096 3.51069 -16.5315 -5.80569 -15.4403 
